<svg width="400" height="821" viewBox="0 0 400 821" fill="none" xmlns="http://www.w3.org/2000/svg">
<g opacity="0.2" filter="url(#filter0_f_175_220)">
<ellipse cx="200.5" cy="162.967" rx="286.5" ry="256.967" fill="#35875D"/>
</g>
<path d="M-4.37211 336.236C-3.73317 336.236 -3.24949 336.699 -2.92106 337.624C-2.58666 338.54 -2.41947 339.872 -2.41947 341.622C-2.41947 343.372 -2.58666 344.709 -2.92106 345.635C-3.24949 346.56 -3.73317 347.023 -4.37211 347.023C-5.00508 347.023 -5.48876 346.56 -5.82316 345.635C-6.15756 344.709 -6.32476 343.372 -6.32476 341.622C-6.32476 339.883 -6.15756 338.55 -5.82316 337.624C-5.48876 336.699 -5.00508 336.236 -4.37211 336.236ZM-5.6888 341.622C-5.6888 342.863 -5.62312 343.834 -5.49175 344.536L-3.50327 337.777C-3.71227 337.299 -4.00189 337.06 -4.37211 337.06C-4.78414 337.06 -5.10659 337.436 -5.33948 338.189C-5.57236 338.931 -5.6888 340.076 -5.6888 341.622ZM-4.37211 346.184C-3.95411 346.184 -3.62867 345.813 -3.39579 345.07C-3.1629 344.318 -3.04646 343.168 -3.04646 341.622C-3.04646 340.31 -3.1211 339.293 -3.27039 338.57L-5.25886 345.391C-5.04389 345.92 -4.74831 346.184 -4.37211 346.184Z" fill="url(#paint0_linear_175_220)" fill-opacity="0.6"/>
<path d="M-3.83469 363.5H-2.51799V364.309H-5.93065V363.5H-4.40794V354.925L-5.85899 356.405L-6.10979 355.718L-4.31837 353.826H-3.83469V363.5Z" fill="url(#paint1_linear_175_220)" fill-opacity="0.6"/>
<path d="M-4.37211 371.111C-3.73317 371.111 -3.24949 371.574 -2.92106 372.5C-2.58666 373.415 -2.41947 374.748 -2.41947 376.498C-2.41947 378.247 -2.58666 379.585 -2.92106 380.51C-3.24949 381.436 -3.73317 381.899 -4.37211 381.899C-5.00508 381.899 -5.48876 381.436 -5.82316 380.51C-6.15756 379.585 -6.32476 378.247 -6.32476 376.498C-6.32476 374.758 -6.15756 373.426 -5.82316 372.5C-5.48876 371.574 -5.00508 371.111 -4.37211 371.111ZM-5.6888 376.498C-5.6888 377.739 -5.62312 378.71 -5.49175 379.412L-3.50327 372.653C-3.71227 372.174 -4.00189 371.935 -4.37211 371.935C-4.78414 371.935 -5.10659 372.312 -5.33948 373.064C-5.57236 373.807 -5.6888 374.951 -5.6888 376.498ZM-4.37211 381.06C-3.95411 381.06 -3.62867 380.688 -3.39579 379.946C-3.1629 379.193 -3.04646 378.044 -3.04646 376.498C-3.04646 375.185 -3.1211 374.168 -3.27039 373.446L-5.25886 380.266C-5.04389 380.795 -4.74831 381.06 -4.37211 381.06Z" fill="url(#paint2_linear_175_220)" fill-opacity="0.6"/>
<path d="M-3.83469 398.375H-2.51799V399.184H-5.93065V398.375H-4.40794V389.8L-5.85899 391.28L-6.10979 390.594L-4.31837 388.702H-3.83469V398.375Z" fill="url(#paint3_linear_175_220)" fill-opacity="0.6"/>
<path d="M-3.83469 415.813H-2.51799V416.622H-5.93065V415.813H-4.40794V407.238L-5.85899 408.718L-6.10979 408.032L-4.31837 406.14H-3.83469V415.813Z" fill="url(#paint4_linear_175_220)" fill-opacity="0.6"/>
<path d="M-4.37211 423.425C-3.73317 423.425 -3.24949 423.888 -2.92106 424.813C-2.58666 425.729 -2.41947 427.061 -2.41947 428.811C-2.41947 430.561 -2.58666 431.898 -2.92106 432.824C-3.24949 433.75 -3.73317 434.212 -4.37211 434.212C-5.00508 434.212 -5.48876 433.75 -5.82316 432.824C-6.15756 431.898 -6.32476 430.561 -6.32476 428.811C-6.32476 427.072 -6.15756 425.739 -5.82316 424.813C-5.48876 423.888 -5.00508 423.425 -4.37211 423.425ZM-5.6888 428.811C-5.6888 430.052 -5.62312 431.023 -5.49175 431.725L-3.50327 424.966C-3.71227 424.488 -4.00189 424.249 -4.37211 424.249C-4.78414 424.249 -5.10659 424.625 -5.33948 425.378C-5.57236 426.12 -5.6888 427.265 -5.6888 428.811ZM-4.37211 433.373C-3.95411 433.373 -3.62867 433.002 -3.39579 432.259C-3.1629 431.507 -3.04646 430.357 -3.04646 428.811C-3.04646 427.499 -3.1211 426.482 -3.27039 425.759L-5.25886 432.58C-5.04389 433.109 -4.74831 433.373 -4.37211 433.373Z" fill="url(#paint5_linear_175_220)" fill-opacity="0.6"/>
<path d="M-3.83469 450.689H-2.51799V451.498H-5.93065V450.689H-4.40794V442.114L-5.85899 443.594L-6.10979 442.907L-4.31837 441.015H-3.83469V450.689Z" fill="url(#paint6_linear_175_220)" fill-opacity="0.6"/>
<path d="M-4.37211 458.3C-3.73317 458.3 -3.24949 458.763 -2.92106 459.689C-2.58666 460.604 -2.41947 461.937 -2.41947 463.687C-2.41947 465.436 -2.58666 466.774 -2.92106 467.699C-3.24949 468.625 -3.73317 469.088 -4.37211 469.088C-5.00508 469.088 -5.48876 468.625 -5.82316 467.699C-6.15756 466.774 -6.32476 465.436 -6.32476 463.687C-6.32476 461.947 -6.15756 460.615 -5.82316 459.689C-5.48876 458.763 -5.00508 458.3 -4.37211 458.3ZM-5.6888 463.687C-5.6888 464.928 -5.62312 465.899 -5.49175 466.601L-3.50327 459.842C-3.71227 459.363 -4.00189 459.124 -4.37211 459.124C-4.78414 459.124 -5.10659 459.501 -5.33948 460.254C-5.57236 460.996 -5.6888 462.14 -5.6888 463.687ZM-4.37211 468.249C-3.95411 468.249 -3.62867 467.878 -3.39579 467.135C-3.1629 466.382 -3.04646 465.233 -3.04646 463.687C-3.04646 462.374 -3.1211 461.357 -3.27039 460.635L-5.25886 467.455C-5.04389 467.984 -4.74831 468.249 -4.37211 468.249Z" fill="url(#paint7_linear_175_220)" fill-opacity="0.6"/>
<path d="M-4.37211 475.738C-3.73317 475.738 -3.24949 476.201 -2.92106 477.127C-2.58666 478.042 -2.41947 479.375 -2.41947 481.124C-2.41947 482.874 -2.58666 484.212 -2.92106 485.137C-3.24949 486.063 -3.73317 486.526 -4.37211 486.526C-5.00508 486.526 -5.48876 486.063 -5.82316 485.137C-6.15756 484.212 -6.32476 482.874 -6.32476 481.124C-6.32476 479.385 -6.15756 478.052 -5.82316 477.127C-5.48876 476.201 -5.00508 475.738 -4.37211 475.738ZM-5.6888 481.124C-5.6888 482.365 -5.62312 483.337 -5.49175 484.039L-3.50327 477.279C-3.71227 476.801 -4.00189 476.562 -4.37211 476.562C-4.78414 476.562 -5.10659 476.939 -5.33948 477.691C-5.57236 478.434 -5.6888 479.578 -5.6888 481.124ZM-4.37211 485.687C-3.95411 485.687 -3.62867 485.315 -3.39579 484.573C-3.1629 483.82 -3.04646 482.671 -3.04646 481.124C-3.04646 479.812 -3.1211 478.795 -3.27039 478.073L-5.25886 484.893C-5.04389 485.422 -4.74831 485.687 -4.37211 485.687Z" fill="url(#paint8_linear_175_220)" fill-opacity="0.6"/>
<path d="M-3.83469 503.002H-2.51799V503.811H-5.93065V503.002H-4.40794V494.427L-5.85899 495.907L-6.10979 495.221L-4.31837 493.329H-3.83469V503.002Z" fill="url(#paint9_linear_175_220)" fill-opacity="0.6"/>
<path d="M-4.37211 510.614C-3.73317 510.614 -3.24949 511.077 -2.92106 512.002C-2.58666 512.918 -2.41947 514.25 -2.41947 516C-2.41947 517.75 -2.58666 519.087 -2.92106 520.013C-3.24949 520.939 -3.73317 521.401 -4.37211 521.401C-5.00508 521.401 -5.48876 520.939 -5.82316 520.013C-6.15756 519.087 -6.32476 517.75 -6.32476 516C-6.32476 514.261 -6.15756 512.928 -5.82316 512.002C-5.48876 511.077 -5.00508 510.614 -4.37211 510.614ZM-5.6888 516C-5.6888 517.241 -5.62312 518.212 -5.49175 518.914L-3.50327 512.155C-3.71227 511.677 -4.00189 511.438 -4.37211 511.438C-4.78414 511.438 -5.10659 511.814 -5.33948 512.567C-5.57236 513.31 -5.6888 514.454 -5.6888 516ZM-4.37211 520.562C-3.95411 520.562 -3.62867 520.191 -3.39579 519.448C-3.1629 518.696 -3.04646 517.546 -3.04646 516C-3.04646 514.688 -3.1211 513.671 -3.27039 512.948L-5.25886 519.769C-5.04389 520.298 -4.74831 520.562 -4.37211 520.562Z" fill="url(#paint10_linear_175_220)" fill-opacity="0.6"/>
<path d="M-3.83469 537.878H-2.51799V538.687H-5.93065V537.878H-4.40794V529.303L-5.85899 530.783L-6.10979 530.096L-4.31837 528.204H-3.83469V537.878Z" fill="url(#paint11_linear_175_220)" fill-opacity="0.6"/>
<path d="M-3.83469 555.316H-2.51799V556.124H-5.93065V555.316H-4.40794V546.741L-5.85899 548.221L-6.10979 547.534L-4.31837 545.642H-3.83469V555.316Z" fill="url(#paint12_linear_175_220)" fill-opacity="0.6"/>
<path d="M12.2625 371.111C12.9014 371.111 13.3851 371.574 13.7135 372.5C14.0479 373.415 14.2151 374.748 14.2151 376.498C14.2151 378.247 14.0479 379.585 13.7135 380.51C13.3851 381.436 12.9014 381.899 12.2625 381.899C11.6295 381.899 11.1458 381.436 10.8114 380.51C10.477 379.585 10.3098 378.247 10.3098 376.498C10.3098 374.758 10.477 373.426 10.8114 372.5C11.1458 371.574 11.6295 371.111 12.2625 371.111ZM10.9458 376.498C10.9458 377.739 11.0115 378.71 11.1429 379.412L13.1313 372.653C12.9223 372.174 12.6327 371.935 12.2625 371.935C11.8505 371.935 11.528 372.312 11.2951 373.064C11.0622 373.807 10.9458 374.951 10.9458 376.498ZM12.2625 381.06C12.6805 381.06 13.0059 380.688 13.2388 379.946C13.4717 379.193 13.5881 378.044 13.5881 376.498C13.5881 375.185 13.5135 374.168 13.3642 373.446L11.3757 380.266C11.5907 380.795 11.8863 381.06 12.2625 381.06Z" fill="url(#paint13_linear_175_220)" fill-opacity="0.6"/>
<path d="M12.7999 398.375H14.1166V399.184H10.704V398.375H12.2267V389.8L10.7756 391.28L10.5248 390.594L12.3162 388.702H12.7999V398.375Z" fill="url(#paint14_linear_175_220)" fill-opacity="0.6"/>
<path d="M12.2625 405.987C12.9014 405.987 13.3851 406.45 13.7135 407.376C14.0479 408.291 14.2151 409.624 14.2151 411.373C14.2151 413.123 14.0479 414.46 13.7135 415.386C13.3851 416.312 12.9014 416.775 12.2625 416.775C11.6295 416.775 11.1458 416.312 10.8114 415.386C10.477 414.46 10.3098 413.123 10.3098 411.373C10.3098 409.634 10.477 408.301 10.8114 407.376C11.1458 406.45 11.6295 405.987 12.2625 405.987ZM10.9458 411.373C10.9458 412.614 11.0115 413.586 11.1429 414.287L13.1313 407.528C12.9223 407.05 12.6327 406.811 12.2625 406.811C11.8505 406.811 11.528 407.187 11.2951 407.94C11.0622 408.683 10.9458 409.827 10.9458 411.373ZM12.2625 415.935C12.6805 415.935 13.0059 415.564 13.2388 414.822C13.4717 414.069 13.5881 412.919 13.5881 411.373C13.5881 410.061 13.5135 409.044 13.3642 408.322L11.3757 415.142C11.5907 415.671 11.8863 415.935 12.2625 415.935Z" fill="url(#paint15_linear_175_220)" fill-opacity="0.6"/>
<path d="M12.2625 423.425C12.9014 423.425 13.3851 423.888 13.7135 424.813C14.0479 425.729 14.2151 427.061 14.2151 428.811C14.2151 430.561 14.0479 431.898 13.7135 432.824C13.3851 433.75 12.9014 434.212 12.2625 434.212C11.6295 434.212 11.1458 433.75 10.8114 432.824C10.477 431.898 10.3098 430.561 10.3098 428.811C10.3098 427.072 10.477 425.739 10.8114 424.813C11.1458 423.888 11.6295 423.425 12.2625 423.425ZM10.9458 428.811C10.9458 430.052 11.0115 431.023 11.1429 431.725L13.1313 424.966C12.9223 424.488 12.6327 424.249 12.2625 424.249C11.8505 424.249 11.528 424.625 11.2951 425.378C11.0622 426.12 10.9458 427.265 10.9458 428.811ZM12.2625 433.373C12.6805 433.373 13.0059 433.002 13.2388 432.259C13.4717 431.507 13.5881 430.357 13.5881 428.811C13.5881 427.499 13.5135 426.482 13.3642 425.759L11.3757 432.58C11.5907 433.109 11.8863 433.373 12.2625 433.373Z" fill="url(#paint16_linear_175_220)" fill-opacity="0.6"/>
<path d="M12.7999 450.689H14.1166V451.498H10.704V450.689H12.2267V442.114L10.7756 443.594L10.5248 442.907L12.3162 441.015H12.7999V450.689Z" fill="url(#paint17_linear_175_220)" fill-opacity="0.6"/>
<path d="M12.2625 458.3C12.9014 458.3 13.3851 458.763 13.7135 459.689C14.0479 460.604 14.2151 461.937 14.2151 463.687C14.2151 465.436 14.0479 466.774 13.7135 467.699C13.3851 468.625 12.9014 469.088 12.2625 469.088C11.6295 469.088 11.1458 468.625 10.8114 467.699C10.477 466.774 10.3098 465.436 10.3098 463.687C10.3098 461.947 10.477 460.615 10.8114 459.689C11.1458 458.763 11.6295 458.3 12.2625 458.3ZM10.9458 463.687C10.9458 464.928 11.0115 465.899 11.1429 466.601L13.1313 459.842C12.9223 459.363 12.6327 459.124 12.2625 459.124C11.8505 459.124 11.528 459.501 11.2951 460.254C11.0622 460.996 10.9458 462.14 10.9458 463.687ZM12.2625 468.249C12.6805 468.249 13.0059 467.878 13.2388 467.135C13.4717 466.382 13.5881 465.233 13.5881 463.687C13.5881 462.374 13.5135 461.357 13.3642 460.635L11.3757 467.455C11.5907 467.984 11.8863 468.249 12.2625 468.249Z" fill="url(#paint18_linear_175_220)" fill-opacity="0.6"/>
<path d="M12.7999 485.565H14.1166V486.373H10.704V485.565H12.2267V476.989L10.7756 478.469L10.5248 477.783L12.3162 475.891H12.7999V485.565Z" fill="url(#paint19_linear_175_220)" fill-opacity="0.6"/>
<path d="M12.2625 493.176C12.9014 493.176 13.3851 493.639 13.7135 494.565C14.0479 495.48 14.2151 496.813 14.2151 498.562C14.2151 500.312 14.0479 501.649 13.7135 502.575C13.3851 503.501 12.9014 503.964 12.2625 503.964C11.6295 503.964 11.1458 503.501 10.8114 502.575C10.477 501.649 10.3098 500.312 10.3098 498.562C10.3098 496.823 10.477 495.49 10.8114 494.565C11.1458 493.639 11.6295 493.176 12.2625 493.176ZM10.9458 498.562C10.9458 499.803 11.0115 500.775 11.1429 501.477L13.1313 494.717C12.9223 494.239 12.6327 494 12.2625 494C11.8505 494 11.528 494.376 11.2951 495.129C11.0622 495.872 10.9458 497.016 10.9458 498.562ZM12.2625 503.124C12.6805 503.124 13.0059 502.753 13.2388 502.011C13.4717 501.258 13.5881 500.108 13.5881 498.562C13.5881 497.25 13.5135 496.233 13.3642 495.511L11.3757 502.331C11.5907 502.86 11.8863 503.124 12.2625 503.124Z" fill="url(#paint20_linear_175_220)" fill-opacity="0.6"/>
<path d="M12.2625 510.614C12.9014 510.614 13.3851 511.077 13.7135 512.002C14.0479 512.918 14.2151 514.25 14.2151 516C14.2151 517.75 14.0479 519.087 13.7135 520.013C13.3851 520.939 12.9014 521.401 12.2625 521.401C11.6295 521.401 11.1458 520.939 10.8114 520.013C10.477 519.087 10.3098 517.75 10.3098 516C10.3098 514.261 10.477 512.928 10.8114 512.002C11.1458 511.077 11.6295 510.614 12.2625 510.614ZM10.9458 516C10.9458 517.241 11.0115 518.212 11.1429 518.914L13.1313 512.155C12.9223 511.677 12.6327 511.438 12.2625 511.438C11.8505 511.438 11.528 511.814 11.2951 512.567C11.0622 513.31 10.9458 514.454 10.9458 516ZM12.2625 520.562C12.6805 520.562 13.0059 520.191 13.2388 519.448C13.4717 518.696 13.5881 517.546 13.5881 516C13.5881 514.688 13.5135 513.671 13.3642 512.948L11.3757 519.769C11.5907 520.298 11.8863 520.562 12.2625 520.562Z" fill="url(#paint21_linear_175_220)" fill-opacity="0.6"/>
<path d="M12.7999 537.878H14.1166V538.687H10.704V537.878H12.2267V529.303L10.7756 530.783L10.5248 530.096L12.3162 528.204H12.7999V537.878Z" fill="url(#paint22_linear_175_220)" fill-opacity="0.6"/>
<path d="M12.2625 545.49C12.9014 545.49 13.3851 545.952 13.7135 546.878C14.0479 547.794 14.2151 549.126 14.2151 550.876C14.2151 552.625 14.0479 553.963 13.7135 554.889C13.3851 555.814 12.9014 556.277 12.2625 556.277C11.6295 556.277 11.1458 555.814 10.8114 554.889C10.477 553.963 10.3098 552.625 10.3098 550.876C10.3098 549.136 10.477 547.804 10.8114 546.878C11.1458 545.952 11.6295 545.49 12.2625 545.49ZM10.9458 550.876C10.9458 552.117 11.0115 553.088 11.1429 553.79L13.1313 547.031C12.9223 546.553 12.6327 546.313 12.2625 546.313C11.8505 546.313 11.528 546.69 11.2951 547.443C11.0622 548.185 10.9458 549.329 10.9458 550.876ZM12.2625 555.438C12.6805 555.438 13.0059 555.067 13.2388 554.324C13.4717 553.571 13.5881 552.422 13.5881 550.876C13.5881 549.563 13.5135 548.546 13.3642 547.824L11.3757 554.644C11.5907 555.173 11.8863 555.438 12.2625 555.438Z" fill="url(#paint23_linear_175_220)" fill-opacity="0.6"/>
<path d="M12.7999 572.754H14.1166V573.562H10.704V572.754H12.2267V564.178L10.7756 565.659L10.5248 564.972L12.3162 563.08H12.7999V572.754Z" fill="url(#paint24_linear_175_220)" fill-opacity="0.6"/>
<path d="M12.7999 590.191H14.1166V591H10.704V590.191H12.2267V581.616L10.7756 583.096L10.5248 582.41L12.3162 580.518H12.7999V590.191Z" fill="url(#paint25_linear_175_220)" fill-opacity="0.6"/>
<path d="M-12.6894 388.549C-12.0505 388.549 -11.5668 389.012 -11.2384 389.938C-10.904 390.853 -10.7368 392.186 -10.7368 393.935C-10.7368 395.685 -10.904 397.023 -11.2384 397.948C-11.5668 398.874 -12.0505 399.337 -12.6894 399.337C-13.3224 399.337 -13.8061 398.874 -14.1405 397.948C-14.4749 397.023 -14.6421 395.685 -14.6421 393.935C-14.6421 392.196 -14.4749 390.863 -14.1405 389.938C-13.8061 389.012 -13.3224 388.549 -12.6894 388.549ZM-14.0061 393.935C-14.0061 395.176 -13.9404 396.148 -13.809 396.85L-11.8206 390.09C-12.0296 389.612 -12.3192 389.373 -12.6894 389.373C-13.1014 389.373 -13.4239 389.75 -13.6568 390.502C-13.8897 391.245 -14.0061 392.389 -14.0061 393.935ZM-12.6894 398.498C-12.2714 398.498 -11.946 398.126 -11.7131 397.384C-11.4802 396.631 -11.3638 395.482 -11.3638 393.935C-11.3638 392.623 -11.4384 391.606 -11.5877 390.884L-13.5762 397.704C-13.3612 398.233 -13.0656 398.498 -12.6894 398.498Z" fill="url(#paint26_linear_175_220)" fill-opacity="0.6"/>
<path d="M-12.6894 405.987C-12.0505 405.987 -11.5668 406.45 -11.2384 407.376C-10.904 408.291 -10.7368 409.624 -10.7368 411.373C-10.7368 413.123 -10.904 414.46 -11.2384 415.386C-11.5668 416.312 -12.0505 416.775 -12.6894 416.775C-13.3224 416.775 -13.8061 416.312 -14.1405 415.386C-14.4749 414.46 -14.6421 413.123 -14.6421 411.373C-14.6421 409.634 -14.4749 408.301 -14.1405 407.376C-13.8061 406.45 -13.3224 405.987 -12.6894 405.987ZM-14.0061 411.373C-14.0061 412.614 -13.9404 413.586 -13.809 414.287L-11.8206 407.528C-12.0296 407.05 -12.3192 406.811 -12.6894 406.811C-13.1014 406.811 -13.4239 407.187 -13.6568 407.94C-13.8897 408.683 -14.0061 409.827 -14.0061 411.373ZM-12.6894 415.935C-12.2714 415.935 -11.946 415.564 -11.7131 414.822C-11.4802 414.069 -11.3638 412.919 -11.3638 411.373C-11.3638 410.061 -11.4384 409.044 -11.5877 408.322L-13.5762 415.142C-13.3612 415.671 -13.0656 415.935 -12.6894 415.935Z" fill="url(#paint27_linear_175_220)" fill-opacity="0.6"/>
<path d="M-12.152 433.251H-10.8353V434.06H-14.2479V433.251H-12.7252V424.676L-14.1763 426.156L-14.4271 425.469L-12.6357 423.577H-12.152V433.251Z" fill="url(#paint28_linear_175_220)" fill-opacity="0.6"/>
<path d="M-12.6894 440.863C-12.0505 440.863 -11.5668 441.326 -11.2384 442.251C-10.904 443.167 -10.7368 444.499 -10.7368 446.249C-10.7368 447.998 -10.904 449.336 -11.2384 450.262C-11.5668 451.187 -12.0505 451.65 -12.6894 451.65C-13.3224 451.65 -13.8061 451.187 -14.1405 450.262C-14.4749 449.336 -14.6421 447.998 -14.6421 446.249C-14.6421 444.509 -14.4749 443.177 -14.1405 442.251C-13.8061 441.326 -13.3224 440.863 -12.6894 440.863ZM-14.0061 446.249C-14.0061 447.49 -13.9404 448.461 -13.809 449.163L-11.8206 442.404C-12.0296 441.926 -12.3192 441.687 -12.6894 441.687C-13.1014 441.687 -13.4239 442.063 -13.6568 442.816C-13.8897 443.558 -14.0061 444.703 -14.0061 446.249ZM-12.6894 450.811C-12.2714 450.811 -11.946 450.44 -11.7131 449.697C-11.4802 448.944 -11.3638 447.795 -11.3638 446.249C-11.3638 444.937 -11.4384 443.919 -11.5877 443.197L-13.5762 450.018C-13.3612 450.546 -13.0656 450.811 -12.6894 450.811Z" fill="url(#paint29_linear_175_220)" fill-opacity="0.6"/>
<path d="M-12.152 468.127H-10.8353V468.935H-14.2479V468.127H-12.7252V459.552L-14.1763 461.032L-14.4271 460.345L-12.6357 458.453H-12.152V468.127Z" fill="url(#paint30_linear_175_220)" fill-opacity="0.6"/>
<path d="M-12.152 485.565H-10.8353V486.373H-14.2479V485.565H-12.7252V476.989L-14.1763 478.469L-14.4271 477.783L-12.6357 475.891H-12.152V485.565Z" fill="url(#paint31_linear_175_220)" fill-opacity="0.6"/>
<path d="M4.48261 363.5H5.79931V364.309H2.38665V363.5H3.90936V354.925L2.45831 356.405L2.20751 355.718L3.99893 353.826H4.48261V363.5Z" fill="url(#paint32_linear_175_220)" fill-opacity="0.6"/>
<path d="M3.94519 371.111C4.58413 371.111 5.06781 371.574 5.39624 372.5C5.73064 373.415 5.89783 374.748 5.89783 376.498C5.89783 378.247 5.73064 379.585 5.39624 380.51C5.06781 381.436 4.58413 381.899 3.94519 381.899C3.31222 381.899 2.82854 381.436 2.49414 380.51C2.15974 379.585 1.99254 378.247 1.99254 376.498C1.99254 374.758 2.15974 373.426 2.49414 372.5C2.82854 371.574 3.31222 371.111 3.94519 371.111ZM2.6285 376.498C2.6285 377.739 2.69418 378.71 2.82555 379.412L4.81403 372.653C4.60503 372.174 4.31542 371.935 3.94519 371.935C3.53316 371.935 3.21071 372.312 2.97782 373.064C2.74494 373.807 2.6285 374.951 2.6285 376.498ZM3.94519 381.06C4.36319 381.06 4.68863 380.688 4.92151 379.946C5.1544 379.193 5.27084 378.044 5.27084 376.498C5.27084 375.185 5.1962 374.168 5.04691 373.446L3.05844 380.266C3.27341 380.795 3.56899 381.06 3.94519 381.06Z" fill="url(#paint33_linear_175_220)" fill-opacity="0.6"/>
<path d="M4.48261 398.375H5.79931V399.184H2.38665V398.375H3.90936V389.8L2.45831 391.28L2.20751 390.594L3.99893 388.702H4.48261V398.375Z" fill="url(#paint34_linear_175_220)" fill-opacity="0.6"/>
<path d="M4.48261 415.813H5.79931V416.622H2.38665V415.813H3.90936V407.238L2.45831 408.718L2.20751 408.032L3.99893 406.14H4.48261V415.813Z" fill="url(#paint35_linear_175_220)" fill-opacity="0.6"/>
<path d="M3.94519 423.425C4.58413 423.425 5.06781 423.888 5.39624 424.813C5.73064 425.729 5.89783 427.061 5.89783 428.811C5.89783 430.561 5.73064 431.898 5.39624 432.824C5.06781 433.75 4.58413 434.212 3.94519 434.212C3.31222 434.212 2.82854 433.75 2.49414 432.824C2.15974 431.898 1.99254 430.561 1.99254 428.811C1.99254 427.072 2.15974 425.739 2.49414 424.813C2.82854 423.888 3.31222 423.425 3.94519 423.425ZM2.6285 428.811C2.6285 430.052 2.69418 431.023 2.82555 431.725L4.81403 424.966C4.60503 424.488 4.31542 424.249 3.94519 424.249C3.53316 424.249 3.21071 424.625 2.97782 425.378C2.74494 426.12 2.6285 427.265 2.6285 428.811ZM3.94519 433.373C4.36319 433.373 4.68863 433.002 4.92151 432.259C5.1544 431.507 5.27084 430.357 5.27084 428.811C5.27084 427.499 5.1962 426.482 5.04691 425.759L3.05844 432.58C3.27341 433.109 3.56899 433.373 3.94519 433.373Z" fill="url(#paint36_linear_175_220)" fill-opacity="0.6"/>
<path d="M4.48261 450.689H5.79931V451.498H2.38665V450.689H3.90936V442.114L2.45831 443.594L2.20751 442.907L3.99893 441.015H4.48261V450.689Z" fill="url(#paint37_linear_175_220)" fill-opacity="0.6"/>
<path d="M4.48261 468.127H5.79931V468.935H2.38665V468.127H3.90936V459.552L2.45831 461.032L2.20751 460.345L3.99893 458.453H4.48261V468.127Z" fill="url(#paint38_linear_175_220)" fill-opacity="0.6"/>
<path d="M3.94519 475.738C4.58413 475.738 5.06781 476.201 5.39624 477.127C5.73064 478.042 5.89783 479.375 5.89783 481.124C5.89783 482.874 5.73064 484.212 5.39624 485.137C5.06781 486.063 4.58413 486.526 3.94519 486.526C3.31222 486.526 2.82854 486.063 2.49414 485.137C2.15974 484.212 1.99254 482.874 1.99254 481.124C1.99254 479.385 2.15974 478.052 2.49414 477.127C2.82854 476.201 3.31222 475.738 3.94519 475.738ZM2.6285 481.124C2.6285 482.365 2.69418 483.337 2.82555 484.039L4.81403 477.279C4.60503 476.801 4.31542 476.562 3.94519 476.562C3.53316 476.562 3.21071 476.939 2.97782 477.691C2.74494 478.434 2.6285 479.578 2.6285 481.124ZM3.94519 485.687C4.36319 485.687 4.68863 485.315 4.92151 484.573C5.1544 483.82 5.27084 482.671 5.27084 481.124C5.27084 479.812 5.1962 478.795 5.04691 478.073L3.05844 484.893C3.27341 485.422 3.56899 485.687 3.94519 485.687Z" fill="url(#paint39_linear_175_220)" fill-opacity="0.6"/>
<path d="M4.48261 503.002H5.79931V503.811H2.38665V503.002H3.90936V494.427L2.45831 495.907L2.20751 495.221L3.99893 493.329H4.48261V503.002Z" fill="url(#paint40_linear_175_220)" fill-opacity="0.6"/>
<path d="M3.94519 510.614C4.58413 510.614 5.06781 511.077 5.39624 512.002C5.73064 512.918 5.89783 514.25 5.89783 516C5.89783 517.75 5.73064 519.087 5.39624 520.013C5.06781 520.939 4.58413 521.401 3.94519 521.401C3.31222 521.401 2.82854 520.939 2.49414 520.013C2.15974 519.087 1.99254 517.75 1.99254 516C1.99254 514.261 2.15974 512.928 2.49414 512.002C2.82854 511.077 3.31222 510.614 3.94519 510.614ZM2.6285 516C2.6285 517.241 2.69418 518.212 2.82555 518.914L4.81403 512.155C4.60503 511.677 4.31542 511.438 3.94519 511.438C3.53316 511.438 3.21071 511.814 2.97782 512.567C2.74494 513.31 2.6285 514.454 2.6285 516ZM3.94519 520.562C4.36319 520.562 4.68863 520.191 4.92151 519.448C5.1544 518.696 5.27084 517.546 5.27084 516C5.27084 514.688 5.1962 513.671 5.04691 512.948L3.05844 519.769C3.27341 520.298 3.56899 520.562 3.94519 520.562Z" fill="url(#paint41_linear_175_220)" fill-opacity="0.6"/>
<path d="M20.5798 353.674C21.2187 353.674 21.7024 354.136 22.0308 355.062C22.3652 355.978 22.5324 357.31 22.5324 359.06C22.5324 360.809 22.3652 362.147 22.0308 363.073C21.7024 363.998 21.2187 364.461 20.5798 364.461C19.9468 364.461 19.4631 363.998 19.1287 363.073C18.7943 362.147 18.6271 360.809 18.6271 359.06C18.6271 357.32 18.7943 355.988 19.1287 355.062C19.4631 354.136 19.9468 353.674 20.5798 353.674ZM19.2631 359.06C19.2631 360.301 19.3288 361.272 19.4602 361.974L21.4486 355.215C21.2396 354.737 20.95 354.498 20.5798 354.498C20.1678 354.498 19.8453 354.874 19.6124 355.627C19.3795 356.369 19.2631 357.514 19.2631 359.06ZM20.5798 363.622C20.9978 363.622 21.3232 363.251 21.5561 362.508C21.789 361.755 21.9054 360.606 21.9054 359.06C21.9054 357.748 21.8308 356.73 21.6815 356.008L19.693 362.828C19.908 363.357 20.2036 363.622 20.5798 363.622Z" fill="url(#paint42_linear_175_220)" fill-opacity="0.6"/>
<path d="M21.1172 380.938H22.4339V381.746H19.0213V380.938H20.544V372.363L19.0929 373.843L18.8421 373.156L20.6335 371.264H21.1172V380.938Z" fill="url(#paint43_linear_175_220)" fill-opacity="0.6"/>
<path d="M21.1172 398.375H22.4339V399.184H19.0213V398.375H20.544V389.8L19.0929 391.28L18.8421 390.594L20.6335 388.702H21.1172V398.375Z" fill="url(#paint44_linear_175_220)" fill-opacity="0.6"/>
<path d="M20.5798 405.987C21.2187 405.987 21.7024 406.45 22.0308 407.376C22.3652 408.291 22.5324 409.624 22.5324 411.373C22.5324 413.123 22.3652 414.46 22.0308 415.386C21.7024 416.312 21.2187 416.775 20.5798 416.775C19.9468 416.775 19.4631 416.312 19.1287 415.386C18.7943 414.46 18.6271 413.123 18.6271 411.373C18.6271 409.634 18.7943 408.301 19.1287 407.376C19.4631 406.45 19.9468 405.987 20.5798 405.987ZM19.2631 411.373C19.2631 412.614 19.3288 413.586 19.4602 414.287L21.4486 407.528C21.2396 407.05 20.95 406.811 20.5798 406.811C20.1678 406.811 19.8453 407.187 19.6124 407.94C19.3795 408.683 19.2631 409.827 19.2631 411.373ZM20.5798 415.935C20.9978 415.935 21.3232 415.564 21.5561 414.822C21.789 414.069 21.9054 412.919 21.9054 411.373C21.9054 410.061 21.8308 409.044 21.6815 408.322L19.693 415.142C19.908 415.671 20.2036 415.935 20.5798 415.935Z" fill="url(#paint45_linear_175_220)" fill-opacity="0.6"/>
<path d="M20.5798 423.425C21.2187 423.425 21.7024 423.888 22.0308 424.813C22.3652 425.729 22.5324 427.061 22.5324 428.811C22.5324 430.561 22.3652 431.898 22.0308 432.824C21.7024 433.75 21.2187 434.212 20.5798 434.212C19.9468 434.212 19.4631 433.75 19.1287 432.824C18.7943 431.898 18.6271 430.561 18.6271 428.811C18.6271 427.072 18.7943 425.739 19.1287 424.813C19.4631 423.888 19.9468 423.425 20.5798 423.425ZM19.2631 428.811C19.2631 430.052 19.3288 431.023 19.4602 431.725L21.4486 424.966C21.2396 424.488 20.95 424.249 20.5798 424.249C20.1678 424.249 19.8453 424.625 19.6124 425.378C19.3795 426.12 19.2631 427.265 19.2631 428.811ZM20.5798 433.373C20.9978 433.373 21.3232 433.002 21.5561 432.259C21.789 431.507 21.9054 430.357 21.9054 428.811C21.9054 427.499 21.8308 426.482 21.6815 425.759L19.693 432.58C19.908 433.109 20.2036 433.373 20.5798 433.373Z" fill="url(#paint46_linear_175_220)" fill-opacity="0.6"/>
<g opacity="0.6">
<path d="M374.592 115.979C375.202 115.979 375.663 116.423 375.976 117.311C376.295 118.19 376.455 119.468 376.455 121.147C376.455 122.826 376.295 124.11 375.976 124.998C375.663 125.887 375.202 126.331 374.592 126.331C373.988 126.331 373.527 125.887 373.208 124.998C372.889 124.11 372.729 122.826 372.729 121.147C372.729 119.478 372.889 118.199 373.208 117.311C373.527 116.423 373.988 115.979 374.592 115.979ZM373.336 121.147C373.336 122.338 373.398 123.271 373.524 123.944L375.421 117.457C375.221 116.999 374.945 116.769 374.592 116.769C374.199 116.769 373.891 117.13 373.669 117.853C373.447 118.565 373.336 119.664 373.336 121.147ZM374.592 125.525C374.991 125.525 375.301 125.169 375.523 124.457C375.746 123.734 375.857 122.631 375.857 121.147C375.857 119.888 375.785 118.912 375.643 118.219L373.746 124.764C373.951 125.272 374.233 125.525 374.592 125.525Z" fill="url(#paint47_linear_175_220)"/>
<path d="M375.105 142.143H376.361V142.919H373.105V142.143H374.558V133.914L373.173 135.334L372.934 134.675L374.643 132.859H375.105V142.143Z" fill="url(#paint48_linear_175_220)"/>
<path d="M374.592 149.447C375.202 149.447 375.663 149.891 375.976 150.78C376.295 151.658 376.455 152.937 376.455 154.616C376.455 156.295 376.295 157.579 375.976 158.467C375.663 159.355 375.202 159.799 374.592 159.799C373.988 159.799 373.527 159.355 373.208 158.467C372.889 157.579 372.729 156.295 372.729 154.616C372.729 152.947 372.889 151.668 373.208 150.78C373.527 149.891 373.988 149.447 374.592 149.447ZM373.336 154.616C373.336 155.807 373.398 156.739 373.524 157.413L375.421 150.926C375.221 150.467 374.945 150.238 374.592 150.238C374.199 150.238 373.891 150.599 373.669 151.321C373.447 152.034 373.336 153.132 373.336 154.616ZM374.592 158.994C374.991 158.994 375.301 158.638 375.523 157.925C375.746 157.203 375.857 156.1 375.857 154.616C375.857 153.357 375.785 152.38 375.643 151.687L373.746 158.233C373.951 158.74 374.233 158.994 374.592 158.994Z" fill="url(#paint49_linear_175_220)"/>
<path d="M375.105 175.611H376.361V176.387H373.105V175.611H374.558V167.382L373.173 168.802L372.934 168.143L374.643 166.328H375.105V175.611Z" fill="url(#paint50_linear_175_220)"/>
<path d="M375.105 192.345H376.361V193.121H373.105V192.345H374.558V184.116L373.173 185.537L372.934 184.878L374.643 183.062H375.105V192.345Z" fill="url(#paint51_linear_175_220)"/>
<path d="M374.592 199.65C375.202 199.65 375.663 200.094 375.976 200.982C376.295 201.861 376.455 203.14 376.455 204.819C376.455 206.498 376.295 207.781 375.976 208.67C375.663 209.558 375.202 210.002 374.592 210.002C373.988 210.002 373.527 209.558 373.208 208.67C372.889 207.781 372.729 206.498 372.729 204.819C372.729 203.149 372.889 201.871 373.208 200.982C373.527 200.094 373.988 199.65 374.592 199.65ZM373.336 204.819C373.336 206.01 373.398 206.942 373.524 207.615L375.421 201.129C375.221 200.67 374.945 200.441 374.592 200.441C374.199 200.441 373.891 200.802 373.669 201.524C373.447 202.237 373.336 203.335 373.336 204.819ZM374.592 209.197C374.991 209.197 375.301 208.841 375.523 208.128C375.746 207.406 375.857 206.302 375.857 204.819C375.857 203.559 375.785 202.583 375.643 201.89L373.746 208.435C373.951 208.943 374.233 209.197 374.592 209.197Z" fill="url(#paint52_linear_175_220)"/>
<path d="M375.105 225.814H376.361V226.59H373.105V225.814H374.558V217.585L373.173 219.005L372.934 218.346L374.643 216.531H375.105V225.814Z" fill="url(#paint53_linear_175_220)"/>
<path d="M374.592 233.118C375.202 233.118 375.663 233.563 375.976 234.451C376.295 235.329 376.455 236.608 376.455 238.287C376.455 239.966 376.295 241.25 375.976 242.138C375.663 243.027 375.202 243.471 374.592 243.471C373.988 243.471 373.527 243.027 373.208 242.138C372.889 241.25 372.729 239.966 372.729 238.287C372.729 236.618 372.889 235.339 373.208 234.451C373.527 233.563 373.988 233.118 374.592 233.118ZM373.336 238.287C373.336 239.478 373.398 240.41 373.524 241.084L375.421 234.597C375.221 234.139 374.945 233.909 374.592 233.909C374.199 233.909 373.891 234.27 373.669 234.993C373.447 235.705 373.336 236.803 373.336 238.287ZM374.592 242.665C374.991 242.665 375.301 242.309 375.523 241.596C375.746 240.874 375.857 239.771 375.857 238.287C375.857 237.028 375.785 236.052 375.643 235.359L373.746 241.904C373.951 242.412 374.233 242.665 374.592 242.665Z" fill="url(#paint54_linear_175_220)"/>
<path d="M374.592 249.853C375.202 249.853 375.663 250.297 375.976 251.185C376.295 252.064 376.455 253.342 376.455 255.021C376.455 256.701 376.295 257.984 375.976 258.872C375.663 259.761 375.202 260.205 374.592 260.205C373.988 260.205 373.527 259.761 373.208 258.872C372.889 257.984 372.729 256.701 372.729 255.021C372.729 253.352 372.889 252.073 373.208 251.185C373.527 250.297 373.988 249.853 374.592 249.853ZM373.336 255.021C373.336 256.212 373.398 257.145 373.524 257.818L375.421 251.332C375.221 250.873 374.945 250.643 374.592 250.643C374.199 250.643 373.891 251.005 373.669 251.727C373.447 252.44 373.336 253.538 373.336 255.021ZM374.592 259.4C374.991 259.4 375.301 259.043 375.523 258.331C375.746 257.608 375.857 256.505 375.857 255.021C375.857 253.762 375.785 252.786 375.643 252.093L373.746 258.638C373.951 259.146 374.233 259.4 374.592 259.4Z" fill="url(#paint55_linear_175_220)"/>
<path d="M375.105 276.017H376.361V276.793H373.105V276.017H374.558V267.788L373.173 269.208L372.934 268.549L374.643 266.733H375.105V276.017Z" fill="url(#paint56_linear_175_220)"/>
<path d="M374.592 283.321C375.202 283.321 375.663 283.765 375.976 284.654C376.295 285.532 376.455 286.811 376.455 288.49C376.455 290.169 376.295 291.453 375.976 292.341C375.663 293.229 375.202 293.673 374.592 293.673C373.988 293.673 373.527 293.229 373.208 292.341C372.889 291.453 372.729 290.169 372.729 288.49C372.729 286.821 372.889 285.542 373.208 284.654C373.527 283.765 373.988 283.321 374.592 283.321ZM373.336 288.49C373.336 289.681 373.398 290.613 373.524 291.287L375.421 284.8C375.221 284.341 374.945 284.112 374.592 284.112C374.199 284.112 373.891 284.473 373.669 285.195C373.447 285.908 373.336 287.006 373.336 288.49ZM374.592 292.868C374.991 292.868 375.301 292.512 375.523 291.799C375.746 291.077 375.857 289.974 375.857 288.49C375.857 287.231 375.785 286.255 375.643 285.562L373.746 292.107C373.951 292.614 374.233 292.868 374.592 292.868Z" fill="url(#paint57_linear_175_220)"/>
<path d="M375.105 309.485H376.361V310.261H373.105V309.485H374.558V301.256L373.173 302.676L372.934 302.018L374.643 300.202H375.105V309.485Z" fill="url(#paint58_linear_175_220)"/>
<path d="M375.105 326.22H376.361V326.996H373.105V326.22H374.558V317.99L373.173 319.411L372.934 318.752L374.643 316.936H375.105V326.22Z" fill="url(#paint59_linear_175_220)"/>
<path d="M390.462 149.447C391.071 149.447 391.533 149.891 391.846 150.78C392.165 151.658 392.325 152.937 392.325 154.616C392.325 156.295 392.165 157.579 391.846 158.467C391.533 159.355 391.071 159.799 390.462 159.799C389.858 159.799 389.396 159.355 389.077 158.467C388.758 157.579 388.599 156.295 388.599 154.616C388.599 152.947 388.758 151.668 389.077 150.78C389.396 149.891 389.858 149.447 390.462 149.447ZM389.206 154.616C389.206 155.807 389.268 156.739 389.394 157.413L391.291 150.926C391.091 150.467 390.815 150.238 390.462 150.238C390.069 150.238 389.761 150.599 389.539 151.321C389.317 152.034 389.206 153.132 389.206 154.616ZM390.462 158.994C390.861 158.994 391.171 158.638 391.393 157.925C391.615 157.203 391.726 156.1 391.726 154.616C391.726 153.357 391.655 152.38 391.513 151.687L389.616 158.233C389.821 158.74 390.103 158.994 390.462 158.994Z" fill="url(#paint60_linear_175_220)"/>
<path d="M390.974 175.611H392.231V176.387H388.975V175.611H390.428V167.382L389.043 168.802L388.804 168.143L390.513 166.328H390.974V175.611Z" fill="url(#paint61_linear_175_220)"/>
<path d="M390.462 182.916C391.071 182.916 391.533 183.36 391.846 184.248C392.165 185.127 392.325 186.405 392.325 188.084C392.325 189.763 392.165 191.047 391.846 191.935C391.533 192.824 391.071 193.268 390.462 193.268C389.858 193.268 389.396 192.824 389.077 191.935C388.758 191.047 388.599 189.763 388.599 188.084C388.599 186.415 388.758 185.136 389.077 184.248C389.396 183.36 389.858 182.916 390.462 182.916ZM389.206 188.084C389.206 189.275 389.268 190.208 389.394 190.881L391.291 184.395C391.091 183.936 390.815 183.706 390.462 183.706C390.069 183.706 389.761 184.068 389.539 184.79C389.317 185.502 389.206 186.601 389.206 188.084ZM390.462 192.463C390.861 192.463 391.171 192.106 391.393 191.394C391.615 190.671 391.726 189.568 391.726 188.084C391.726 186.825 391.655 185.849 391.513 185.156L389.616 191.701C389.821 192.209 390.103 192.463 390.462 192.463Z" fill="url(#paint62_linear_175_220)"/>
<path d="M390.462 199.65C391.071 199.65 391.533 200.094 391.846 200.982C392.165 201.861 392.325 203.14 392.325 204.819C392.325 206.498 392.165 207.781 391.846 208.67C391.533 209.558 391.071 210.002 390.462 210.002C389.858 210.002 389.396 209.558 389.077 208.67C388.758 207.781 388.599 206.498 388.599 204.819C388.599 203.149 388.758 201.871 389.077 200.982C389.396 200.094 389.858 199.65 390.462 199.65ZM389.206 204.819C389.206 206.01 389.268 206.942 389.394 207.615L391.291 201.129C391.091 200.67 390.815 200.441 390.462 200.441C390.069 200.441 389.761 200.802 389.539 201.524C389.317 202.237 389.206 203.335 389.206 204.819ZM390.462 209.197C390.861 209.197 391.171 208.841 391.393 208.128C391.615 207.406 391.726 206.302 391.726 204.819C391.726 203.559 391.655 202.583 391.513 201.89L389.616 208.435C389.821 208.943 390.103 209.197 390.462 209.197Z" fill="url(#paint63_linear_175_220)"/>
<path d="M390.974 225.814H392.231V226.59H388.975V225.814H390.428V217.585L389.043 219.005L388.804 218.346L390.513 216.531H390.974V225.814Z" fill="url(#paint64_linear_175_220)"/>
<path d="M390.462 233.118C391.071 233.118 391.533 233.563 391.846 234.451C392.165 235.329 392.325 236.608 392.325 238.287C392.325 239.966 392.165 241.25 391.846 242.138C391.533 243.027 391.071 243.471 390.462 243.471C389.858 243.471 389.396 243.027 389.077 242.138C388.758 241.25 388.599 239.966 388.599 238.287C388.599 236.618 388.758 235.339 389.077 234.451C389.396 233.563 389.858 233.118 390.462 233.118ZM389.206 238.287C389.206 239.478 389.268 240.41 389.394 241.084L391.291 234.597C391.091 234.139 390.815 233.909 390.462 233.909C390.069 233.909 389.761 234.27 389.539 234.993C389.317 235.705 389.206 236.803 389.206 238.287ZM390.462 242.665C390.861 242.665 391.171 242.309 391.393 241.596C391.615 240.874 391.726 239.771 391.726 238.287C391.726 237.028 391.655 236.052 391.513 235.359L389.616 241.904C389.821 242.412 390.103 242.665 390.462 242.665Z" fill="url(#paint65_linear_175_220)"/>
<path d="M390.974 259.282H392.231V260.058H388.975V259.282H390.428V251.053L389.043 252.474L388.804 251.815L390.513 249.999H390.974V259.282Z" fill="url(#paint66_linear_175_220)"/>
<path d="M390.462 266.587C391.071 266.587 391.533 267.031 391.846 267.919C392.165 268.798 392.325 270.077 392.325 271.756C392.325 273.435 392.165 274.718 391.846 275.607C391.533 276.495 391.071 276.939 390.462 276.939C389.858 276.939 389.396 276.495 389.077 275.607C388.758 274.718 388.599 273.435 388.599 271.756C388.599 270.087 388.758 268.808 389.077 267.919C389.396 267.031 389.858 266.587 390.462 266.587ZM389.206 271.756C389.206 272.947 389.268 273.879 389.394 274.552L391.291 268.066C391.091 267.607 390.815 267.378 390.462 267.378C390.069 267.378 389.761 267.739 389.539 268.461C389.317 269.174 389.206 270.272 389.206 271.756ZM390.462 276.134C390.861 276.134 391.171 275.778 391.393 275.065C391.615 274.343 391.726 273.24 391.726 271.756C391.726 270.496 391.655 269.52 391.513 268.827L389.616 275.372C389.821 275.88 390.103 276.134 390.462 276.134Z" fill="url(#paint67_linear_175_220)"/>
<path d="M390.462 283.321C391.071 283.321 391.533 283.765 391.846 284.654C392.165 285.532 392.325 286.811 392.325 288.49C392.325 290.169 392.165 291.453 391.846 292.341C391.533 293.229 391.071 293.673 390.462 293.673C389.858 293.673 389.396 293.229 389.077 292.341C388.758 291.453 388.599 290.169 388.599 288.49C388.599 286.821 388.758 285.542 389.077 284.654C389.396 283.765 389.858 283.321 390.462 283.321ZM389.206 288.49C389.206 289.681 389.268 290.613 389.394 291.287L391.291 284.8C391.091 284.341 390.815 284.112 390.462 284.112C390.069 284.112 389.761 284.473 389.539 285.195C389.317 285.908 389.206 287.006 389.206 288.49ZM390.462 292.868C390.861 292.868 391.171 292.512 391.393 291.799C391.615 291.077 391.726 289.974 391.726 288.49C391.726 287.231 391.655 286.255 391.513 285.562L389.616 292.107C389.821 292.614 390.103 292.868 390.462 292.868Z" fill="url(#paint68_linear_175_220)"/>
<path d="M390.974 309.485H392.231V310.261H388.975V309.485H390.428V301.256L389.043 302.676L388.804 302.018L390.513 300.202H390.974V309.485Z" fill="url(#paint69_linear_175_220)"/>
<path d="M390.462 316.79C391.071 316.79 391.533 317.234 391.846 318.122C392.165 319.001 392.325 320.28 392.325 321.959C392.325 323.638 392.165 324.921 391.846 325.81C391.533 326.698 391.071 327.142 390.462 327.142C389.858 327.142 389.396 326.698 389.077 325.81C388.758 324.921 388.599 323.638 388.599 321.959C388.599 320.289 388.758 319.011 389.077 318.122C389.396 317.234 389.858 316.79 390.462 316.79ZM389.206 321.959C389.206 323.149 389.268 324.082 389.394 324.755L391.291 318.269C391.091 317.81 390.815 317.58 390.462 317.58C390.069 317.58 389.761 317.942 389.539 318.664C389.317 319.377 389.206 320.475 389.206 321.959ZM390.462 326.337C390.861 326.337 391.171 325.98 391.393 325.268C391.615 324.545 391.726 323.442 391.726 321.959C391.726 320.699 391.655 319.723 391.513 319.03L389.616 325.575C389.821 326.083 390.103 326.337 390.462 326.337Z" fill="url(#paint70_linear_175_220)"/>
<path d="M390.974 342.954H392.231V343.73H388.975V342.954H390.428V334.725L389.043 336.145L388.804 335.486L390.513 333.67H390.974V342.954Z" fill="url(#paint71_linear_175_220)"/>
<path d="M390.974 359.688H392.231V360.464H388.975V359.688H390.428V351.459L389.043 352.879L388.804 352.22L390.513 350.405H390.974V359.688Z" fill="url(#paint72_linear_175_220)"/>
<path d="M366.657 166.181C367.267 166.181 367.728 166.626 368.041 167.514C368.36 168.392 368.52 169.671 368.52 171.35C368.52 173.029 368.36 174.313 368.041 175.201C367.728 176.089 367.267 176.534 366.657 176.534C366.053 176.534 365.592 176.089 365.273 175.201C364.954 174.313 364.794 173.029 364.794 171.35C364.794 169.681 364.954 168.402 365.273 167.514C365.592 166.626 366.053 166.181 366.657 166.181ZM365.401 171.35C365.401 172.541 365.464 173.473 365.589 174.147L367.486 167.66C367.287 167.201 367.01 166.972 366.657 166.972C366.264 166.972 365.956 167.333 365.734 168.056C365.512 168.768 365.401 169.866 365.401 171.35ZM366.657 175.728C367.056 175.728 367.366 175.372 367.588 174.659C367.811 173.937 367.922 172.834 367.922 171.35C367.922 170.091 367.851 169.115 367.708 168.422L365.811 174.967C366.016 175.474 366.298 175.728 366.657 175.728Z" fill="url(#paint73_linear_175_220)"/>
<path d="M366.657 182.916C367.267 182.916 367.728 183.36 368.041 184.248C368.36 185.127 368.52 186.405 368.52 188.084C368.52 189.763 368.36 191.047 368.041 191.935C367.728 192.824 367.267 193.268 366.657 193.268C366.053 193.268 365.592 192.824 365.273 191.935C364.954 191.047 364.794 189.763 364.794 188.084C364.794 186.415 364.954 185.136 365.273 184.248C365.592 183.36 366.053 182.916 366.657 182.916ZM365.401 188.084C365.401 189.275 365.464 190.208 365.589 190.881L367.486 184.395C367.287 183.936 367.01 183.706 366.657 183.706C366.264 183.706 365.956 184.068 365.734 184.79C365.512 185.502 365.401 186.601 365.401 188.084ZM366.657 192.463C367.056 192.463 367.366 192.106 367.588 191.394C367.811 190.671 367.922 189.568 367.922 188.084C367.922 186.825 367.851 185.849 367.708 185.156L365.811 191.701C366.016 192.209 366.298 192.463 366.657 192.463Z" fill="url(#paint74_linear_175_220)"/>
<path d="M367.17 209.08H368.426V209.856H365.17V209.08H366.623V200.851L365.239 202.271L364.999 201.612L366.708 199.796H367.17V209.08Z" fill="url(#paint75_linear_175_220)"/>
<path d="M366.657 216.384C367.267 216.384 367.728 216.828 368.041 217.717C368.36 218.595 368.52 219.874 368.52 221.553C368.52 223.232 368.36 224.516 368.041 225.404C367.728 226.292 367.267 226.736 366.657 226.736C366.053 226.736 365.592 226.292 365.273 225.404C364.954 224.516 364.794 223.232 364.794 221.553C364.794 219.884 364.954 218.605 365.273 217.717C365.592 216.828 366.053 216.384 366.657 216.384ZM365.401 221.553C365.401 222.744 365.464 223.676 365.589 224.35L367.486 217.863C367.287 217.404 367.01 217.175 366.657 217.175C366.264 217.175 365.956 217.536 365.734 218.258C365.512 218.971 365.401 220.069 365.401 221.553ZM366.657 225.931C367.056 225.931 367.366 225.575 367.588 224.862C367.811 224.14 367.922 223.037 367.922 221.553C367.922 220.294 367.851 219.318 367.708 218.624L365.811 225.17C366.016 225.677 366.298 225.931 366.657 225.931Z" fill="url(#paint76_linear_175_220)"/>
<path d="M367.17 242.548H368.426V243.324H365.17V242.548H366.623V234.319L365.239 235.739L364.999 235.081L366.708 233.265H367.17V242.548Z" fill="url(#paint77_linear_175_220)"/>
<path d="M367.17 259.282H368.426V260.058H365.17V259.282H366.623V251.053L365.239 252.474L364.999 251.815L366.708 249.999H367.17V259.282Z" fill="url(#paint78_linear_175_220)"/>
<path d="M383.04 142.143H384.296V142.919H381.04V142.143H382.493V133.914L381.108 135.334L380.869 134.675L382.578 132.859H383.04V142.143Z" fill="url(#paint79_linear_175_220)"/>
<path d="M382.527 149.447C383.136 149.447 383.598 149.891 383.911 150.78C384.23 151.658 384.39 152.937 384.39 154.616C384.39 156.295 384.23 157.579 383.911 158.467C383.598 159.355 383.136 159.799 382.527 159.799C381.923 159.799 381.462 159.355 381.143 158.467C380.823 157.579 380.664 156.295 380.664 154.616C380.664 152.947 380.823 151.668 381.143 150.78C381.462 149.891 381.923 149.447 382.527 149.447ZM381.271 154.616C381.271 155.807 381.333 156.739 381.459 157.413L383.356 150.926C383.156 150.467 382.88 150.238 382.527 150.238C382.134 150.238 381.826 150.599 381.604 151.321C381.382 152.034 381.271 153.132 381.271 154.616ZM382.527 158.994C382.926 158.994 383.236 158.638 383.458 157.925C383.68 157.203 383.792 156.1 383.792 154.616C383.792 153.357 383.72 152.38 383.578 151.687L381.681 158.233C381.886 158.74 382.168 158.994 382.527 158.994Z" fill="url(#paint80_linear_175_220)"/>
<path d="M383.04 175.611H384.296V176.387H381.04V175.611H382.493V167.382L381.108 168.802L380.869 168.143L382.578 166.328H383.04V175.611Z" fill="url(#paint81_linear_175_220)"/>
<path d="M383.04 192.345H384.296V193.121H381.04V192.345H382.493V184.116L381.108 185.537L380.869 184.878L382.578 183.062H383.04V192.345Z" fill="url(#paint82_linear_175_220)"/>
<path d="M382.527 199.65C383.136 199.65 383.598 200.094 383.911 200.982C384.23 201.861 384.39 203.14 384.39 204.819C384.39 206.498 384.23 207.781 383.911 208.67C383.598 209.558 383.136 210.002 382.527 210.002C381.923 210.002 381.462 209.558 381.143 208.67C380.823 207.781 380.664 206.498 380.664 204.819C380.664 203.149 380.823 201.871 381.143 200.982C381.462 200.094 381.923 199.65 382.527 199.65ZM381.271 204.819C381.271 206.01 381.333 206.942 381.459 207.615L383.356 201.129C383.156 200.67 382.88 200.441 382.527 200.441C382.134 200.441 381.826 200.802 381.604 201.524C381.382 202.237 381.271 203.335 381.271 204.819ZM382.527 209.197C382.926 209.197 383.236 208.841 383.458 208.128C383.68 207.406 383.792 206.302 383.792 204.819C383.792 203.559 383.72 202.583 383.578 201.89L381.681 208.435C381.886 208.943 382.168 209.197 382.527 209.197Z" fill="url(#paint83_linear_175_220)"/>
<path d="M383.04 225.814H384.296V226.59H381.04V225.814H382.493V217.585L381.108 219.005L380.869 218.346L382.578 216.531H383.04V225.814Z" fill="url(#paint84_linear_175_220)"/>
<path d="M383.04 242.548H384.296V243.324H381.04V242.548H382.493V234.319L381.108 235.739L380.869 235.081L382.578 233.265H383.04V242.548Z" fill="url(#paint85_linear_175_220)"/>
<path d="M382.527 249.853C383.136 249.853 383.598 250.297 383.911 251.185C384.23 252.064 384.39 253.342 384.39 255.021C384.39 256.701 384.23 257.984 383.911 258.872C383.598 259.761 383.136 260.205 382.527 260.205C381.923 260.205 381.462 259.761 381.143 258.872C380.823 257.984 380.664 256.701 380.664 255.021C380.664 253.352 380.823 252.073 381.143 251.185C381.462 250.297 381.923 249.853 382.527 249.853ZM381.271 255.021C381.271 256.212 381.333 257.145 381.459 257.818L383.356 251.332C383.156 250.873 382.88 250.643 382.527 250.643C382.134 250.643 381.826 251.005 381.604 251.727C381.382 252.44 381.271 253.538 381.271 255.021ZM382.527 259.4C382.926 259.4 383.236 259.043 383.458 258.331C383.68 257.608 383.792 256.505 383.792 255.021C383.792 253.762 383.72 252.786 383.578 252.093L381.681 258.638C381.886 259.146 382.168 259.4 382.527 259.4Z" fill="url(#paint86_linear_175_220)"/>
<path d="M383.04 276.017H384.296V276.793H381.04V276.017H382.493V267.788L381.108 269.208L380.869 268.549L382.578 266.733H383.04V276.017Z" fill="url(#paint87_linear_175_220)"/>
<path d="M382.527 283.321C383.136 283.321 383.598 283.765 383.911 284.654C384.23 285.532 384.39 286.811 384.39 288.49C384.39 290.169 384.23 291.453 383.911 292.341C383.598 293.229 383.136 293.673 382.527 293.673C381.923 293.673 381.462 293.229 381.143 292.341C380.823 291.453 380.664 290.169 380.664 288.49C380.664 286.821 380.823 285.542 381.143 284.654C381.462 283.765 381.923 283.321 382.527 283.321ZM381.271 288.49C381.271 289.681 381.333 290.613 381.459 291.287L383.356 284.8C383.156 284.341 382.88 284.112 382.527 284.112C382.134 284.112 381.826 284.473 381.604 285.195C381.382 285.908 381.271 287.006 381.271 288.49ZM382.527 292.868C382.926 292.868 383.236 292.512 383.458 291.799C383.68 291.077 383.792 289.974 383.792 288.49C383.792 287.231 383.72 286.255 383.578 285.562L381.681 292.107C381.886 292.614 382.168 292.868 382.527 292.868Z" fill="url(#paint88_linear_175_220)"/>
<path d="M398.397 132.713C399.006 132.713 399.468 133.157 399.781 134.045C400.1 134.924 400.26 136.203 400.26 137.882C400.26 139.561 400.1 140.844 399.781 141.733C399.468 142.621 399.006 143.065 398.397 143.065C397.793 143.065 397.331 142.621 397.012 141.733C396.693 140.844 396.534 139.561 396.534 137.882C396.534 136.212 396.693 134.934 397.012 134.045C397.331 133.157 397.793 132.713 398.397 132.713ZM397.14 137.882C397.14 139.073 397.203 140.005 397.328 140.678L399.226 134.192C399.026 133.733 398.75 133.504 398.397 133.504C398.004 133.504 397.696 133.865 397.474 134.587C397.252 135.3 397.14 136.398 397.14 137.882ZM398.397 142.26C398.795 142.26 399.106 141.903 399.328 141.191C399.55 140.468 399.661 139.365 399.661 137.882C399.661 136.622 399.59 135.646 399.448 134.953L397.551 141.498C397.756 142.006 398.038 142.26 398.397 142.26Z" fill="url(#paint89_linear_175_220)"/>
<path d="M398.909 158.877H400.166V159.653H396.91V158.877H398.362V150.648L396.978 152.068L396.739 151.409L398.448 149.594H398.909V158.877Z" fill="url(#paint90_linear_175_220)"/>
<path d="M398.909 175.611H400.166V176.387H396.91V175.611H398.362V167.382L396.978 168.802L396.739 168.143L398.448 166.328H398.909V175.611Z" fill="url(#paint91_linear_175_220)"/>
<path d="M398.397 182.916C399.006 182.916 399.468 183.36 399.781 184.248C400.1 185.127 400.26 186.405 400.26 188.084C400.26 189.763 400.1 191.047 399.781 191.935C399.468 192.824 399.006 193.268 398.397 193.268C397.793 193.268 397.331 192.824 397.012 191.935C396.693 191.047 396.534 189.763 396.534 188.084C396.534 186.415 396.693 185.136 397.012 184.248C397.331 183.36 397.793 182.916 398.397 182.916ZM397.14 188.084C397.14 189.275 397.203 190.208 397.328 190.881L399.226 184.395C399.026 183.936 398.75 183.706 398.397 183.706C398.004 183.706 397.696 184.068 397.474 184.79C397.252 185.502 397.14 186.601 397.14 188.084ZM398.397 192.463C398.795 192.463 399.106 192.106 399.328 191.394C399.55 190.671 399.661 189.568 399.661 188.084C399.661 186.825 399.59 185.849 399.448 185.156L397.551 191.701C397.756 192.209 398.038 192.463 398.397 192.463Z" fill="url(#paint92_linear_175_220)"/>
<path d="M398.397 199.65C399.006 199.65 399.468 200.094 399.781 200.982C400.1 201.861 400.26 203.14 400.26 204.819C400.26 206.498 400.1 207.781 399.781 208.67C399.468 209.558 399.006 210.002 398.397 210.002C397.793 210.002 397.331 209.558 397.012 208.67C396.693 207.781 396.534 206.498 396.534 204.819C396.534 203.149 396.693 201.871 397.012 200.982C397.331 200.094 397.793 199.65 398.397 199.65ZM397.14 204.819C397.14 206.01 397.203 206.942 397.328 207.615L399.226 201.129C399.026 200.67 398.75 200.441 398.397 200.441C398.004 200.441 397.696 200.802 397.474 201.524C397.252 202.237 397.14 203.335 397.14 204.819ZM398.397 209.197C398.795 209.197 399.106 208.841 399.328 208.128C399.55 207.406 399.661 206.302 399.661 204.819C399.661 203.559 399.59 202.583 399.448 201.89L397.551 208.435C397.756 208.943 398.038 209.197 398.397 209.197Z" fill="url(#paint93_linear_175_220)"/>
</g>
<defs>
<filter id="filter0_f_175_220" x="-486.19" y="-494.19" width="1373.38" height="1314.31" filterUnits="userSpaceOnUse" color-interpolation-filters="sRGB">
<feFlood flood-opacity="0" result="BackgroundImageFix"/>
<feBlend mode="normal" in="SourceGraphic" in2="BackgroundImageFix" result="shape"/>
<feGaussianBlur stdDeviation="200.095" result="effect1_foregroundBlur_175_220"/>
</filter>
<linearGradient id="paint0_linear_175_220" x1="3.94519" y1="336.236" x2="3.94519" y2="564.849" gradientUnits="userSpaceOnUse">
<stop stop-color="#F7DD43"/>
<stop offset="1" stop-color="#F7DD43" stop-opacity="0"/>
</linearGradient>
<linearGradient id="paint1_linear_175_220" x1="3.94519" y1="336.236" x2="3.94519" y2="564.849" gradientUnits="userSpaceOnUse">
<stop stop-color="#F7DD43"/>
<stop offset="1" stop-color="#F7DD43" stop-opacity="0"/>
</linearGradient>
<linearGradient id="paint2_linear_175_220" x1="3.94519" y1="336.236" x2="3.94519" y2="564.849" gradientUnits="userSpaceOnUse">
<stop stop-color="#F7DD43"/>
<stop offset="1" stop-color="#F7DD43" stop-opacity="0"/>
</linearGradient>
<linearGradient id="paint3_linear_175_220" x1="3.94519" y1="336.236" x2="3.94519" y2="564.849" gradientUnits="userSpaceOnUse">
<stop stop-color="#F7DD43"/>
<stop offset="1" stop-color="#F7DD43" stop-opacity="0"/>
</linearGradient>
<linearGradient id="paint4_linear_175_220" x1="3.94519" y1="336.236" x2="3.94519" y2="564.849" gradientUnits="userSpaceOnUse">
<stop stop-color="#F7DD43"/>
<stop offset="1" stop-color="#F7DD43" stop-opacity="0"/>
</linearGradient>
<linearGradient id="paint5_linear_175_220" x1="3.94519" y1="336.236" x2="3.94519" y2="564.849" gradientUnits="userSpaceOnUse">
<stop stop-color="#F7DD43"/>
<stop offset="1" stop-color="#F7DD43" stop-opacity="0"/>
</linearGradient>
<linearGradient id="paint6_linear_175_220" x1="3.94519" y1="336.236" x2="3.94519" y2="564.849" gradientUnits="userSpaceOnUse">
<stop stop-color="#F7DD43"/>
<stop offset="1" stop-color="#F7DD43" stop-opacity="0"/>
</linearGradient>
<linearGradient id="paint7_linear_175_220" x1="3.94519" y1="336.236" x2="3.94519" y2="564.849" gradientUnits="userSpaceOnUse">
<stop stop-color="#F7DD43"/>
<stop offset="1" stop-color="#F7DD43" stop-opacity="0"/>
</linearGradient>
<linearGradient id="paint8_linear_175_220" x1="3.94519" y1="336.236" x2="3.94519" y2="564.849" gradientUnits="userSpaceOnUse">
<stop stop-color="#F7DD43"/>
<stop offset="1" stop-color="#F7DD43" stop-opacity="0"/>
</linearGradient>
<linearGradient id="paint9_linear_175_220" x1="3.94519" y1="336.236" x2="3.94519" y2="564.849" gradientUnits="userSpaceOnUse">
<stop stop-color="#F7DD43"/>
<stop offset="1" stop-color="#F7DD43" stop-opacity="0"/>
</linearGradient>
<linearGradient id="paint10_linear_175_220" x1="3.94519" y1="336.236" x2="3.94519" y2="564.849" gradientUnits="userSpaceOnUse">
<stop stop-color="#F7DD43"/>
<stop offset="1" stop-color="#F7DD43" stop-opacity="0"/>
</linearGradient>
<linearGradient id="paint11_linear_175_220" x1="3.94519" y1="336.236" x2="3.94519" y2="564.849" gradientUnits="userSpaceOnUse">
<stop stop-color="#F7DD43"/>
<stop offset="1" stop-color="#F7DD43" stop-opacity="0"/>
</linearGradient>
<linearGradient id="paint12_linear_175_220" x1="3.94519" y1="336.236" x2="3.94519" y2="564.849" gradientUnits="userSpaceOnUse">
<stop stop-color="#F7DD43"/>
<stop offset="1" stop-color="#F7DD43" stop-opacity="0"/>
</linearGradient>
<linearGradient id="paint13_linear_175_220" x1="3.94519" y1="336.236" x2="3.94519" y2="564.849" gradientUnits="userSpaceOnUse">
<stop stop-color="#F7DD43"/>
<stop offset="1" stop-color="#F7DD43" stop-opacity="0"/>
</linearGradient>
<linearGradient id="paint14_linear_175_220" x1="3.94519" y1="336.236" x2="3.94519" y2="564.849" gradientUnits="userSpaceOnUse">
<stop stop-color="#F7DD43"/>
<stop offset="1" stop-color="#F7DD43" stop-opacity="0"/>
</linearGradient>
<linearGradient id="paint15_linear_175_220" x1="3.94519" y1="336.236" x2="3.94519" y2="564.849" gradientUnits="userSpaceOnUse">
<stop stop-color="#F7DD43"/>
<stop offset="1" stop-color="#F7DD43" stop-opacity="0"/>
</linearGradient>
<linearGradient id="paint16_linear_175_220" x1="3.94519" y1="336.236" x2="3.94519" y2="564.849" gradientUnits="userSpaceOnUse">
<stop stop-color="#F7DD43"/>
<stop offset="1" stop-color="#F7DD43" stop-opacity="0"/>
</linearGradient>
<linearGradient id="paint17_linear_175_220" x1="3.94519" y1="336.236" x2="3.94519" y2="564.849" gradientUnits="userSpaceOnUse">
<stop stop-color="#F7DD43"/>
<stop offset="1" stop-color="#F7DD43" stop-opacity="0"/>
</linearGradient>
<linearGradient id="paint18_linear_175_220" x1="3.94519" y1="336.236" x2="3.94519" y2="564.849" gradientUnits="userSpaceOnUse">
<stop stop-color="#F7DD43"/>
<stop offset="1" stop-color="#F7DD43" stop-opacity="0"/>
</linearGradient>
<linearGradient id="paint19_linear_175_220" x1="3.94519" y1="336.236" x2="3.94519" y2="564.849" gradientUnits="userSpaceOnUse">
<stop stop-color="#F7DD43"/>
<stop offset="1" stop-color="#F7DD43" stop-opacity="0"/>
</linearGradient>
<linearGradient id="paint20_linear_175_220" x1="3.94519" y1="336.236" x2="3.94519" y2="564.849" gradientUnits="userSpaceOnUse">
<stop stop-color="#F7DD43"/>
<stop offset="1" stop-color="#F7DD43" stop-opacity="0"/>
</linearGradient>
<linearGradient id="paint21_linear_175_220" x1="3.94519" y1="336.236" x2="3.94519" y2="564.849" gradientUnits="userSpaceOnUse">
<stop stop-color="#F7DD43"/>
<stop offset="1" stop-color="#F7DD43" stop-opacity="0"/>
</linearGradient>
<linearGradient id="paint22_linear_175_220" x1="3.94519" y1="336.236" x2="3.94519" y2="564.849" gradientUnits="userSpaceOnUse">
<stop stop-color="#F7DD43"/>
<stop offset="1" stop-color="#F7DD43" stop-opacity="0"/>
</linearGradient>
<linearGradient id="paint23_linear_175_220" x1="3.94519" y1="336.236" x2="3.94519" y2="564.849" gradientUnits="userSpaceOnUse">
<stop stop-color="#F7DD43"/>
<stop offset="1" stop-color="#F7DD43" stop-opacity="0"/>
</linearGradient>
<linearGradient id="paint24_linear_175_220" x1="3.94519" y1="336.236" x2="3.94519" y2="564.849" gradientUnits="userSpaceOnUse">
<stop stop-color="#F7DD43"/>
<stop offset="1" stop-color="#F7DD43" stop-opacity="0"/>
</linearGradient>
<linearGradient id="paint25_linear_175_220" x1="3.94519" y1="336.236" x2="3.94519" y2="564.849" gradientUnits="userSpaceOnUse">
<stop stop-color="#F7DD43"/>
<stop offset="1" stop-color="#F7DD43" stop-opacity="0"/>
</linearGradient>
<linearGradient id="paint26_linear_175_220" x1="3.94519" y1="336.236" x2="3.94519" y2="564.849" gradientUnits="userSpaceOnUse">
<stop stop-color="#F7DD43"/>
<stop offset="1" stop-color="#F7DD43" stop-opacity="0"/>
</linearGradient>
<linearGradient id="paint27_linear_175_220" x1="3.94519" y1="336.236" x2="3.94519" y2="564.849" gradientUnits="userSpaceOnUse">
<stop stop-color="#F7DD43"/>
<stop offset="1" stop-color="#F7DD43" stop-opacity="0"/>
</linearGradient>
<linearGradient id="paint28_linear_175_220" x1="3.94519" y1="336.236" x2="3.94519" y2="564.849" gradientUnits="userSpaceOnUse">
<stop stop-color="#F7DD43"/>
<stop offset="1" stop-color="#F7DD43" stop-opacity="0"/>
</linearGradient>
<linearGradient id="paint29_linear_175_220" x1="3.94519" y1="336.236" x2="3.94519" y2="564.849" gradientUnits="userSpaceOnUse">
<stop stop-color="#F7DD43"/>
<stop offset="1" stop-color="#F7DD43" stop-opacity="0"/>
</linearGradient>
<linearGradient id="paint30_linear_175_220" x1="3.94519" y1="336.236" x2="3.94519" y2="564.849" gradientUnits="userSpaceOnUse">
<stop stop-color="#F7DD43"/>
<stop offset="1" stop-color="#F7DD43" stop-opacity="0"/>
</linearGradient>
<linearGradient id="paint31_linear_175_220" x1="3.94519" y1="336.236" x2="3.94519" y2="564.849" gradientUnits="userSpaceOnUse">
<stop stop-color="#F7DD43"/>
<stop offset="1" stop-color="#F7DD43" stop-opacity="0"/>
</linearGradient>
<linearGradient id="paint32_linear_175_220" x1="3.94519" y1="336.236" x2="3.94519" y2="564.849" gradientUnits="userSpaceOnUse">
<stop stop-color="#F7DD43"/>
<stop offset="1" stop-color="#F7DD43" stop-opacity="0"/>
</linearGradient>
<linearGradient id="paint33_linear_175_220" x1="3.94519" y1="336.236" x2="3.94519" y2="564.849" gradientUnits="userSpaceOnUse">
<stop stop-color="#F7DD43"/>
<stop offset="1" stop-color="#F7DD43" stop-opacity="0"/>
</linearGradient>
<linearGradient id="paint34_linear_175_220" x1="3.94519" y1="336.236" x2="3.94519" y2="564.849" gradientUnits="userSpaceOnUse">
<stop stop-color="#F7DD43"/>
<stop offset="1" stop-color="#F7DD43" stop-opacity="0"/>
</linearGradient>
<linearGradient id="paint35_linear_175_220" x1="3.94519" y1="336.236" x2="3.94519" y2="564.849" gradientUnits="userSpaceOnUse">
<stop stop-color="#F7DD43"/>
<stop offset="1" stop-color="#F7DD43" stop-opacity="0"/>
</linearGradient>
<linearGradient id="paint36_linear_175_220" x1="3.94519" y1="336.236" x2="3.94519" y2="564.849" gradientUnits="userSpaceOnUse">
<stop stop-color="#F7DD43"/>
<stop offset="1" stop-color="#F7DD43" stop-opacity="0"/>
</linearGradient>
<linearGradient id="paint37_linear_175_220" x1="3.94519" y1="336.236" x2="3.94519" y2="564.849" gradientUnits="userSpaceOnUse">
<stop stop-color="#F7DD43"/>
<stop offset="1" stop-color="#F7DD43" stop-opacity="0"/>
</linearGradient>
<linearGradient id="paint38_linear_175_220" x1="3.94519" y1="336.236" x2="3.94519" y2="564.849" gradientUnits="userSpaceOnUse">
<stop stop-color="#F7DD43"/>
<stop offset="1" stop-color="#F7DD43" stop-opacity="0"/>
</linearGradient>
<linearGradient id="paint39_linear_175_220" x1="3.94519" y1="336.236" x2="3.94519" y2="564.849" gradientUnits="userSpaceOnUse">
<stop stop-color="#F7DD43"/>
<stop offset="1" stop-color="#F7DD43" stop-opacity="0"/>
</linearGradient>
<linearGradient id="paint40_linear_175_220" x1="3.94519" y1="336.236" x2="3.94519" y2="564.849" gradientUnits="userSpaceOnUse">
<stop stop-color="#F7DD43"/>
<stop offset="1" stop-color="#F7DD43" stop-opacity="0"/>
</linearGradient>
<linearGradient id="paint41_linear_175_220" x1="3.94519" y1="336.236" x2="3.94519" y2="564.849" gradientUnits="userSpaceOnUse">
<stop stop-color="#F7DD43"/>
<stop offset="1" stop-color="#F7DD43" stop-opacity="0"/>
</linearGradient>
<linearGradient id="paint42_linear_175_220" x1="3.94519" y1="336.236" x2="3.94519" y2="564.849" gradientUnits="userSpaceOnUse">
<stop stop-color="#F7DD43"/>
<stop offset="1" stop-color="#F7DD43" stop-opacity="0"/>
</linearGradient>
<linearGradient id="paint43_linear_175_220" x1="3.94519" y1="336.236" x2="3.94519" y2="564.849" gradientUnits="userSpaceOnUse">
<stop stop-color="#F7DD43"/>
<stop offset="1" stop-color="#F7DD43" stop-opacity="0"/>
</linearGradient>
<linearGradient id="paint44_linear_175_220" x1="3.94519" y1="336.236" x2="3.94519" y2="564.849" gradientUnits="userSpaceOnUse">
<stop stop-color="#F7DD43"/>
<stop offset="1" stop-color="#F7DD43" stop-opacity="0"/>
</linearGradient>
<linearGradient id="paint45_linear_175_220" x1="3.94519" y1="336.236" x2="3.94519" y2="564.849" gradientUnits="userSpaceOnUse">
<stop stop-color="#F7DD43"/>
<stop offset="1" stop-color="#F7DD43" stop-opacity="0"/>
</linearGradient>
<linearGradient id="paint46_linear_175_220" x1="3.94519" y1="336.236" x2="3.94519" y2="564.849" gradientUnits="userSpaceOnUse">
<stop stop-color="#F7DD43"/>
<stop offset="1" stop-color="#F7DD43" stop-opacity="0"/>
</linearGradient>
<linearGradient id="paint47_linear_175_220" x1="382.527" y1="115.979" x2="382.527" y2="335.368" gradientUnits="userSpaceOnUse">
<stop stop-color="#F7DD43"/>
<stop offset="1" stop-color="#F7DD43" stop-opacity="0"/>
</linearGradient>
<linearGradient id="paint48_linear_175_220" x1="382.527" y1="115.979" x2="382.527" y2="335.368" gradientUnits="userSpaceOnUse">
<stop stop-color="#F7DD43"/>
<stop offset="1" stop-color="#F7DD43" stop-opacity="0"/>
</linearGradient>
<linearGradient id="paint49_linear_175_220" x1="382.527" y1="115.979" x2="382.527" y2="335.368" gradientUnits="userSpaceOnUse">
<stop stop-color="#F7DD43"/>
<stop offset="1" stop-color="#F7DD43" stop-opacity="0"/>
</linearGradient>
<linearGradient id="paint50_linear_175_220" x1="382.527" y1="115.979" x2="382.527" y2="335.368" gradientUnits="userSpaceOnUse">
<stop stop-color="#F7DD43"/>
<stop offset="1" stop-color="#F7DD43" stop-opacity="0"/>
</linearGradient>
<linearGradient id="paint51_linear_175_220" x1="382.527" y1="115.979" x2="382.527" y2="335.368" gradientUnits="userSpaceOnUse">
<stop stop-color="#F7DD43"/>
<stop offset="1" stop-color="#F7DD43" stop-opacity="0"/>
</linearGradient>
<linearGradient id="paint52_linear_175_220" x1="382.527" y1="115.979" x2="382.527" y2="335.368" gradientUnits="userSpaceOnUse">
<stop stop-color="#F7DD43"/>
<stop offset="1" stop-color="#F7DD43" stop-opacity="0"/>
</linearGradient>
<linearGradient id="paint53_linear_175_220" x1="382.527" y1="115.979" x2="382.527" y2="335.368" gradientUnits="userSpaceOnUse">
<stop stop-color="#F7DD43"/>
<stop offset="1" stop-color="#F7DD43" stop-opacity="0"/>
</linearGradient>
<linearGradient id="paint54_linear_175_220" x1="382.527" y1="115.979" x2="382.527" y2="335.368" gradientUnits="userSpaceOnUse">
<stop stop-color="#F7DD43"/>
<stop offset="1" stop-color="#F7DD43" stop-opacity="0"/>
</linearGradient>
<linearGradient id="paint55_linear_175_220" x1="382.527" y1="115.979" x2="382.527" y2="335.368" gradientUnits="userSpaceOnUse">
<stop stop-color="#F7DD43"/>
<stop offset="1" stop-color="#F7DD43" stop-opacity="0"/>
</linearGradient>
<linearGradient id="paint56_linear_175_220" x1="382.527" y1="115.979" x2="382.527" y2="335.368" gradientUnits="userSpaceOnUse">
<stop stop-color="#F7DD43"/>
<stop offset="1" stop-color="#F7DD43" stop-opacity="0"/>
</linearGradient>
<linearGradient id="paint57_linear_175_220" x1="382.527" y1="115.979" x2="382.527" y2="335.368" gradientUnits="userSpaceOnUse">
<stop stop-color="#F7DD43"/>
<stop offset="1" stop-color="#F7DD43" stop-opacity="0"/>
</linearGradient>
<linearGradient id="paint58_linear_175_220" x1="382.527" y1="115.979" x2="382.527" y2="335.368" gradientUnits="userSpaceOnUse">
<stop stop-color="#F7DD43"/>
<stop offset="1" stop-color="#F7DD43" stop-opacity="0"/>
</linearGradient>
<linearGradient id="paint59_linear_175_220" x1="382.527" y1="115.979" x2="382.527" y2="335.368" gradientUnits="userSpaceOnUse">
<stop stop-color="#F7DD43"/>
<stop offset="1" stop-color="#F7DD43" stop-opacity="0"/>
</linearGradient>
<linearGradient id="paint60_linear_175_220" x1="382.527" y1="115.979" x2="382.527" y2="335.368" gradientUnits="userSpaceOnUse">
<stop stop-color="#F7DD43"/>
<stop offset="1" stop-color="#F7DD43" stop-opacity="0"/>
</linearGradient>
<linearGradient id="paint61_linear_175_220" x1="382.527" y1="115.979" x2="382.527" y2="335.368" gradientUnits="userSpaceOnUse">
<stop stop-color="#F7DD43"/>
<stop offset="1" stop-color="#F7DD43" stop-opacity="0"/>
</linearGradient>
<linearGradient id="paint62_linear_175_220" x1="382.527" y1="115.979" x2="382.527" y2="335.368" gradientUnits="userSpaceOnUse">
<stop stop-color="#F7DD43"/>
<stop offset="1" stop-color="#F7DD43" stop-opacity="0"/>
</linearGradient>
<linearGradient id="paint63_linear_175_220" x1="382.527" y1="115.979" x2="382.527" y2="335.368" gradientUnits="userSpaceOnUse">
<stop stop-color="#F7DD43"/>
<stop offset="1" stop-color="#F7DD43" stop-opacity="0"/>
</linearGradient>
<linearGradient id="paint64_linear_175_220" x1="382.527" y1="115.979" x2="382.527" y2="335.368" gradientUnits="userSpaceOnUse">
<stop stop-color="#F7DD43"/>
<stop offset="1" stop-color="#F7DD43" stop-opacity="0"/>
</linearGradient>
<linearGradient id="paint65_linear_175_220" x1="382.527" y1="115.979" x2="382.527" y2="335.368" gradientUnits="userSpaceOnUse">
<stop stop-color="#F7DD43"/>
<stop offset="1" stop-color="#F7DD43" stop-opacity="0"/>
</linearGradient>
<linearGradient id="paint66_linear_175_220" x1="382.527" y1="115.979" x2="382.527" y2="335.368" gradientUnits="userSpaceOnUse">
<stop stop-color="#F7DD43"/>
<stop offset="1" stop-color="#F7DD43" stop-opacity="0"/>
</linearGradient>
<linearGradient id="paint67_linear_175_220" x1="382.527" y1="115.979" x2="382.527" y2="335.368" gradientUnits="userSpaceOnUse">
<stop stop-color="#F7DD43"/>
<stop offset="1" stop-color="#F7DD43" stop-opacity="0"/>
</linearGradient>
<linearGradient id="paint68_linear_175_220" x1="382.527" y1="115.979" x2="382.527" y2="335.368" gradientUnits="userSpaceOnUse">
<stop stop-color="#F7DD43"/>
<stop offset="1" stop-color="#F7DD43" stop-opacity="0"/>
</linearGradient>
<linearGradient id="paint69_linear_175_220" x1="382.527" y1="115.979" x2="382.527" y2="335.368" gradientUnits="userSpaceOnUse">
<stop stop-color="#F7DD43"/>
<stop offset="1" stop-color="#F7DD43" stop-opacity="0"/>
</linearGradient>
<linearGradient id="paint70_linear_175_220" x1="382.527" y1="115.979" x2="382.527" y2="335.368" gradientUnits="userSpaceOnUse">
<stop stop-color="#F7DD43"/>
<stop offset="1" stop-color="#F7DD43" stop-opacity="0"/>
</linearGradient>
<linearGradient id="paint71_linear_175_220" x1="382.527" y1="115.979" x2="382.527" y2="335.368" gradientUnits="userSpaceOnUse">
<stop stop-color="#F7DD43"/>
<stop offset="1" stop-color="#F7DD43" stop-opacity="0"/>
</linearGradient>
<linearGradient id="paint72_linear_175_220" x1="382.527" y1="115.979" x2="382.527" y2="335.368" gradientUnits="userSpaceOnUse">
<stop stop-color="#F7DD43"/>
<stop offset="1" stop-color="#F7DD43" stop-opacity="0"/>
</linearGradient>
<linearGradient id="paint73_linear_175_220" x1="382.527" y1="115.979" x2="382.527" y2="335.368" gradientUnits="userSpaceOnUse">
<stop stop-color="#F7DD43"/>
<stop offset="1" stop-color="#F7DD43" stop-opacity="0"/>
</linearGradient>
<linearGradient id="paint74_linear_175_220" x1="382.527" y1="115.979" x2="382.527" y2="335.368" gradientUnits="userSpaceOnUse">
<stop stop-color="#F7DD43"/>
<stop offset="1" stop-color="#F7DD43" stop-opacity="0"/>
</linearGradient>
<linearGradient id="paint75_linear_175_220" x1="382.527" y1="115.979" x2="382.527" y2="335.368" gradientUnits="userSpaceOnUse">
<stop stop-color="#F7DD43"/>
<stop offset="1" stop-color="#F7DD43" stop-opacity="0"/>
</linearGradient>
<linearGradient id="paint76_linear_175_220" x1="382.527" y1="115.979" x2="382.527" y2="335.368" gradientUnits="userSpaceOnUse">
<stop stop-color="#F7DD43"/>
<stop offset="1" stop-color="#F7DD43" stop-opacity="0"/>
</linearGradient>
<linearGradient id="paint77_linear_175_220" x1="382.527" y1="115.979" x2="382.527" y2="335.368" gradientUnits="userSpaceOnUse">
<stop stop-color="#F7DD43"/>
<stop offset="1" stop-color="#F7DD43" stop-opacity="0"/>
</linearGradient>
<linearGradient id="paint78_linear_175_220" x1="382.527" y1="115.979" x2="382.527" y2="335.368" gradientUnits="userSpaceOnUse">
<stop stop-color="#F7DD43"/>
<stop offset="1" stop-color="#F7DD43" stop-opacity="0"/>
</linearGradient>
<linearGradient id="paint79_linear_175_220" x1="382.527" y1="115.979" x2="382.527" y2="335.368" gradientUnits="userSpaceOnUse">
<stop stop-color="#F7DD43"/>
<stop offset="1" stop-color="#F7DD43" stop-opacity="0"/>
</linearGradient>
<linearGradient id="paint80_linear_175_220" x1="382.527" y1="115.979" x2="382.527" y2="335.368" gradientUnits="userSpaceOnUse">
<stop stop-color="#F7DD43"/>
<stop offset="1" stop-color="#F7DD43" stop-opacity="0"/>
</linearGradient>
<linearGradient id="paint81_linear_175_220" x1="382.527" y1="115.979" x2="382.527" y2="335.368" gradientUnits="userSpaceOnUse">
<stop stop-color="#F7DD43"/>
<stop offset="1" stop-color="#F7DD43" stop-opacity="0"/>
</linearGradient>
<linearGradient id="paint82_linear_175_220" x1="382.527" y1="115.979" x2="382.527" y2="335.368" gradientUnits="userSpaceOnUse">
<stop stop-color="#F7DD43"/>
<stop offset="1" stop-color="#F7DD43" stop-opacity="0"/>
</linearGradient>
<linearGradient id="paint83_linear_175_220" x1="382.527" y1="115.979" x2="382.527" y2="335.368" gradientUnits="userSpaceOnUse">
<stop stop-color="#F7DD43"/>
<stop offset="1" stop-color="#F7DD43" stop-opacity="0"/>
</linearGradient>
<linearGradient id="paint84_linear_175_220" x1="382.527" y1="115.979" x2="382.527" y2="335.368" gradientUnits="userSpaceOnUse">
<stop stop-color="#F7DD43"/>
<stop offset="1" stop-color="#F7DD43" stop-opacity="0"/>
</linearGradient>
<linearGradient id="paint85_linear_175_220" x1="382.527" y1="115.979" x2="382.527" y2="335.368" gradientUnits="userSpaceOnUse">
<stop stop-color="#F7DD43"/>
<stop offset="1" stop-color="#F7DD43" stop-opacity="0"/>
</linearGradient>
<linearGradient id="paint86_linear_175_220" x1="382.527" y1="115.979" x2="382.527" y2="335.368" gradientUnits="userSpaceOnUse">
<stop stop-color="#F7DD43"/>
<stop offset="1" stop-color="#F7DD43" stop-opacity="0"/>
</linearGradient>
<linearGradient id="paint87_linear_175_220" x1="382.527" y1="115.979" x2="382.527" y2="335.368" gradientUnits="userSpaceOnUse">
<stop stop-color="#F7DD43"/>
<stop offset="1" stop-color="#F7DD43" stop-opacity="0"/>
</linearGradient>
<linearGradient id="paint88_linear_175_220" x1="382.527" y1="115.979" x2="382.527" y2="335.368" gradientUnits="userSpaceOnUse">
<stop stop-color="#F7DD43"/>
<stop offset="1" stop-color="#F7DD43" stop-opacity="0"/>
</linearGradient>
<linearGradient id="paint89_linear_175_220" x1="382.527" y1="115.979" x2="382.527" y2="335.368" gradientUnits="userSpaceOnUse">
<stop stop-color="#F7DD43"/>
<stop offset="1" stop-color="#F7DD43" stop-opacity="0"/>
</linearGradient>
<linearGradient id="paint90_linear_175_220" x1="382.527" y1="115.979" x2="382.527" y2="335.368" gradientUnits="userSpaceOnUse">
<stop stop-color="#F7DD43"/>
<stop offset="1" stop-color="#F7DD43" stop-opacity="0"/>
</linearGradient>
<linearGradient id="paint91_linear_175_220" x1="382.527" y1="115.979" x2="382.527" y2="335.368" gradientUnits="userSpaceOnUse">
<stop stop-color="#F7DD43"/>
<stop offset="1" stop-color="#F7DD43" stop-opacity="0"/>
</linearGradient>
<linearGradient id="paint92_linear_175_220" x1="382.527" y1="115.979" x2="382.527" y2="335.368" gradientUnits="userSpaceOnUse">
<stop stop-color="#F7DD43"/>
<stop offset="1" stop-color="#F7DD43" stop-opacity="0"/>
</linearGradient>
<linearGradient id="paint93_linear_175_220" x1="382.527" y1="115.979" x2="382.527" y2="335.368" gradientUnits="userSpaceOnUse">
<stop stop-color="#F7DD43"/>
<stop offset="1" stop-color="#F7DD43" stop-opacity="0"/>
</linearGradient>
</defs>
</svg>

